<mxfile host="app.diagrams.net" agent="Mozilla/5.0 (Windows NT 10.0; Win64; x64) AppleWebKit/537.36 (KHTML, like Gecko) Chrome/136.0.0.0 Safari/537.36" version="27.0.6">
  <diagram name="Página-1" id="1Gf7_tFx_Znb1VcW-HHT">
    <mxGraphModel grid="1" page="1" gridSize="10" guides="1" tooltips="1" connect="1" arrows="1" fold="1" pageScale="1" pageWidth="827" pageHeight="1169" math="0" shadow="0">
      <root>
        <mxCell id="0" />
        <mxCell id="1" parent="0" />
        <mxCell id="0Zys3uSyWwQmi7Vi93YZ-1" value="Motorista" style="shape=umlLifeline;perimeter=lifelinePerimeter;whiteSpace=wrap;container=1;dropTarget=0;collapsible=0;recursiveResize=0;outlineConnect=0;portConstraint=eastwest;newEdgeStyle={&quot;edgeStyle&quot;:&quot;elbowEdgeStyle&quot;,&quot;elbow&quot;:&quot;vertical&quot;,&quot;curved&quot;:0,&quot;rounded&quot;:0};participant=umlActor;verticalAlign=bottom;labelPosition=center;verticalLabelPosition=top;align=center;size=65;" vertex="1" parent="1">
          <mxGeometry x="20" y="20" width="35" height="2482" as="geometry" />
        </mxCell>
        <mxCell id="0Zys3uSyWwQmi7Vi93YZ-2" value="Interface do Motorista" style="shape=umlLifeline;perimeter=lifelinePerimeter;whiteSpace=wrap;container=1;dropTarget=0;collapsible=0;recursiveResize=0;outlineConnect=0;portConstraint=eastwest;newEdgeStyle={&quot;edgeStyle&quot;:&quot;elbowEdgeStyle&quot;,&quot;elbow&quot;:&quot;vertical&quot;,&quot;curved&quot;:0,&quot;rounded&quot;:0};size=65;" vertex="1" parent="1">
          <mxGeometry x="352" y="20" width="177" height="2482" as="geometry" />
        </mxCell>
        <mxCell id="0Zys3uSyWwQmi7Vi93YZ-3" value="Controlador de Viagem" style="shape=umlLifeline;perimeter=lifelinePerimeter;whiteSpace=wrap;container=1;dropTarget=0;collapsible=0;recursiveResize=0;outlineConnect=0;portConstraint=eastwest;newEdgeStyle={&quot;edgeStyle&quot;:&quot;elbowEdgeStyle&quot;,&quot;elbow&quot;:&quot;vertical&quot;,&quot;curved&quot;:0,&quot;rounded&quot;:0};size=65;" vertex="1" parent="1">
          <mxGeometry x="842" y="20" width="185" height="2482" as="geometry" />
        </mxCell>
        <mxCell id="0Zys3uSyWwQmi7Vi93YZ-4" value="Repositório de Viagens" style="shape=umlLifeline;perimeter=lifelinePerimeter;whiteSpace=wrap;container=1;dropTarget=0;collapsible=0;recursiveResize=0;outlineConnect=0;portConstraint=eastwest;newEdgeStyle={&quot;edgeStyle&quot;:&quot;elbowEdgeStyle&quot;,&quot;elbow&quot;:&quot;vertical&quot;,&quot;curved&quot;:0,&quot;rounded&quot;:0};size=65;" vertex="1" parent="1">
          <mxGeometry x="1317" y="20" width="183" height="2482" as="geometry" />
        </mxCell>
        <mxCell id="0Zys3uSyWwQmi7Vi93YZ-5" value="Viagem" style="shape=umlLifeline;perimeter=lifelinePerimeter;whiteSpace=wrap;container=1;dropTarget=0;collapsible=0;recursiveResize=0;outlineConnect=0;portConstraint=eastwest;newEdgeStyle={&quot;edgeStyle&quot;:&quot;elbowEdgeStyle&quot;,&quot;elbow&quot;:&quot;vertical&quot;,&quot;curved&quot;:0,&quot;rounded&quot;:0};size=65;" vertex="1" parent="1">
          <mxGeometry x="1550" y="20" width="150" height="2482" as="geometry" />
        </mxCell>
        <mxCell id="0Zys3uSyWwQmi7Vi93YZ-6" value="Controlador de Veículo" style="shape=umlLifeline;perimeter=lifelinePerimeter;whiteSpace=wrap;container=1;dropTarget=0;collapsible=0;recursiveResize=0;outlineConnect=0;portConstraint=eastwest;newEdgeStyle={&quot;edgeStyle&quot;:&quot;elbowEdgeStyle&quot;,&quot;elbow&quot;:&quot;vertical&quot;,&quot;curved&quot;:0,&quot;rounded&quot;:0};size=65;" vertex="1" parent="1">
          <mxGeometry x="1750" y="20" width="183" height="2482" as="geometry" />
        </mxCell>
        <mxCell id="0Zys3uSyWwQmi7Vi93YZ-7" value="Sistema de Notificação" style="shape=umlLifeline;perimeter=lifelinePerimeter;whiteSpace=wrap;container=1;dropTarget=0;collapsible=0;recursiveResize=0;outlineConnect=0;portConstraint=eastwest;newEdgeStyle={&quot;edgeStyle&quot;:&quot;elbowEdgeStyle&quot;,&quot;elbow&quot;:&quot;vertical&quot;,&quot;curved&quot;:0,&quot;rounded&quot;:0};size=65;" vertex="1" parent="1">
          <mxGeometry x="1983" y="20" width="182" height="2482" as="geometry" />
        </mxCell>
        <mxCell id="0Zys3uSyWwQmi7Vi93YZ-8" value="alt" style="shape=umlFrame;dashed=1;pointerEvents=0;dropTarget=0;strokeColor=#B3B3B3;height=20;width=30" vertex="1" parent="1">
          <mxGeometry x="923" y="1378" width="1162" height="155" as="geometry" />
        </mxCell>
        <mxCell id="0Zys3uSyWwQmi7Vi93YZ-9" value="[Ocorrência crítica]" style="text;strokeColor=none;fillColor=none;align=center;verticalAlign=middle;whiteSpace=wrap;" vertex="1" parent="0Zys3uSyWwQmi7Vi93YZ-8">
          <mxGeometry x="30" width="1132" height="20" as="geometry" />
        </mxCell>
        <mxCell id="0Zys3uSyWwQmi7Vi93YZ-10" value="&#xa;" style="shape=umlFrame;dashed=1;pointerEvents=0;dropTarget=0;strokeColor=#B3B3B3;height=20;width=30;" vertex="1" parent="1">
          <mxGeometry x="84" y="1115" width="2011" height="536" as="geometry" />
        </mxCell>
        <mxCell id="0Zys3uSyWwQmi7Vi93YZ-11" value="[Registrar ocorrência]" style="text;strokeColor=none;fillColor=none;align=center;verticalAlign=middle;whiteSpace=wrap;" vertex="1" parent="0Zys3uSyWwQmi7Vi93YZ-10">
          <mxGeometry x="30" width="1981" height="20" as="geometry" />
        </mxCell>
        <mxCell id="0Zys3uSyWwQmi7Vi93YZ-12" value="1. Acessa agenda de viagens" style="verticalAlign=bottom;edgeStyle=elbowEdgeStyle;elbow=vertical;curved=0;rounded=0;endArrow=block;" edge="1" parent="1" source="0Zys3uSyWwQmi7Vi93YZ-1" target="0Zys3uSyWwQmi7Vi93YZ-2">
          <mxGeometry relative="1" as="geometry">
            <Array as="points">
              <mxPoint x="276" y="129" />
            </Array>
          </mxGeometry>
        </mxCell>
        <mxCell id="0Zys3uSyWwQmi7Vi93YZ-13" value="2. obterViagensAgendadas(idMotorista, data)" style="verticalAlign=bottom;edgeStyle=elbowEdgeStyle;elbow=vertical;curved=0;rounded=0;endArrow=block;" edge="1" parent="1" source="0Zys3uSyWwQmi7Vi93YZ-2" target="0Zys3uSyWwQmi7Vi93YZ-3">
          <mxGeometry relative="1" as="geometry">
            <Array as="points">
              <mxPoint x="696" y="183" />
            </Array>
          </mxGeometry>
        </mxCell>
        <mxCell id="0Zys3uSyWwQmi7Vi93YZ-14" value="3. buscarViagensMotorista(idMotorista, data)" style="verticalAlign=bottom;edgeStyle=elbowEdgeStyle;elbow=vertical;curved=0;rounded=0;endArrow=block;" edge="1" parent="1" source="0Zys3uSyWwQmi7Vi93YZ-3" target="0Zys3uSyWwQmi7Vi93YZ-4">
          <mxGeometry relative="1" as="geometry">
            <Array as="points">
              <mxPoint x="1180" y="237" />
            </Array>
          </mxGeometry>
        </mxCell>
        <mxCell id="0Zys3uSyWwQmi7Vi93YZ-15" value="4. listaViagensAgendadas" style="verticalAlign=bottom;edgeStyle=elbowEdgeStyle;elbow=vertical;curved=0;rounded=0;dashed=1;dashPattern=2 3;endArrow=block;" edge="1" parent="1" source="0Zys3uSyWwQmi7Vi93YZ-4" target="0Zys3uSyWwQmi7Vi93YZ-3">
          <mxGeometry relative="1" as="geometry">
            <Array as="points">
              <mxPoint x="1183" y="291" />
            </Array>
          </mxGeometry>
        </mxCell>
        <mxCell id="0Zys3uSyWwQmi7Vi93YZ-16" value="5. listaViagensAgendadas" style="verticalAlign=bottom;edgeStyle=elbowEdgeStyle;elbow=vertical;curved=0;rounded=0;dashed=1;dashPattern=2 3;endArrow=block;" edge="1" parent="1" source="0Zys3uSyWwQmi7Vi93YZ-3" target="0Zys3uSyWwQmi7Vi93YZ-2">
          <mxGeometry relative="1" as="geometry">
            <Array as="points">
              <mxPoint x="699" y="345" />
            </Array>
          </mxGeometry>
        </mxCell>
        <mxCell id="0Zys3uSyWwQmi7Vi93YZ-17" value="6. Exibe viagens agendadas" style="verticalAlign=bottom;edgeStyle=elbowEdgeStyle;elbow=vertical;curved=0;rounded=0;dashed=1;dashPattern=2 3;endArrow=block;" edge="1" parent="1" source="0Zys3uSyWwQmi7Vi93YZ-2" target="0Zys3uSyWwQmi7Vi93YZ-1">
          <mxGeometry relative="1" as="geometry">
            <Array as="points">
              <mxPoint x="279" y="399" />
            </Array>
          </mxGeometry>
        </mxCell>
        <mxCell id="0Zys3uSyWwQmi7Vi93YZ-18" value="7. Seleciona iniciar viagem" style="verticalAlign=bottom;edgeStyle=elbowEdgeStyle;elbow=vertical;curved=0;rounded=0;endArrow=block;" edge="1" parent="1" source="0Zys3uSyWwQmi7Vi93YZ-1" target="0Zys3uSyWwQmi7Vi93YZ-2">
          <mxGeometry relative="1" as="geometry">
            <Array as="points">
              <mxPoint x="276" y="453" />
            </Array>
          </mxGeometry>
        </mxCell>
        <mxCell id="0Zys3uSyWwQmi7Vi93YZ-19" value="8. Solicita quilometragem inicial" style="verticalAlign=bottom;edgeStyle=elbowEdgeStyle;elbow=vertical;curved=0;rounded=0;endArrow=block;" edge="1" parent="1" source="0Zys3uSyWwQmi7Vi93YZ-2" target="0Zys3uSyWwQmi7Vi93YZ-1">
          <mxGeometry relative="1" as="geometry">
            <Array as="points">
              <mxPoint x="279" y="507" />
            </Array>
          </mxGeometry>
        </mxCell>
        <mxCell id="0Zys3uSyWwQmi7Vi93YZ-20" value="9. Informa quilometragem inicial" style="verticalAlign=bottom;edgeStyle=elbowEdgeStyle;elbow=vertical;curved=0;rounded=0;endArrow=block;" edge="1" parent="1" source="0Zys3uSyWwQmi7Vi93YZ-1" target="0Zys3uSyWwQmi7Vi93YZ-2">
          <mxGeometry relative="1" as="geometry">
            <Array as="points">
              <mxPoint x="276" y="561" />
            </Array>
          </mxGeometry>
        </mxCell>
        <mxCell id="0Zys3uSyWwQmi7Vi93YZ-21" value="10. iniciarViagem(idViagem, quilometragemInicial)" style="verticalAlign=bottom;edgeStyle=elbowEdgeStyle;elbow=vertical;curved=0;rounded=0;endArrow=block;" edge="1" parent="1" source="0Zys3uSyWwQmi7Vi93YZ-2" target="0Zys3uSyWwQmi7Vi93YZ-3">
          <mxGeometry relative="1" as="geometry">
            <Array as="points">
              <mxPoint x="696" y="615" />
            </Array>
          </mxGeometry>
        </mxCell>
        <mxCell id="0Zys3uSyWwQmi7Vi93YZ-22" value="11. iniciar(horaInicio, quilometragemInicial)" style="verticalAlign=bottom;edgeStyle=elbowEdgeStyle;elbow=vertical;curved=0;rounded=0;endArrow=block;" edge="1" parent="1" source="0Zys3uSyWwQmi7Vi93YZ-3" target="0Zys3uSyWwQmi7Vi93YZ-5">
          <mxGeometry relative="1" as="geometry">
            <Array as="points">
              <mxPoint x="1288" y="669" />
            </Array>
          </mxGeometry>
        </mxCell>
        <mxCell id="0Zys3uSyWwQmi7Vi93YZ-23" value="12. viagemIniciada" style="verticalAlign=bottom;edgeStyle=elbowEdgeStyle;elbow=vertical;curved=0;rounded=0;dashed=1;dashPattern=2 3;endArrow=block;" edge="1" parent="1" source="0Zys3uSyWwQmi7Vi93YZ-5" target="0Zys3uSyWwQmi7Vi93YZ-3">
          <mxGeometry relative="1" as="geometry">
            <Array as="points">
              <mxPoint x="1291" y="723" />
            </Array>
          </mxGeometry>
        </mxCell>
        <mxCell id="0Zys3uSyWwQmi7Vi93YZ-24" value="13. atualizarStatusVeiculo(idVeiculo, &quot;EM_USO&quot;)" style="verticalAlign=bottom;edgeStyle=elbowEdgeStyle;elbow=vertical;curved=0;rounded=0;endArrow=block;" edge="1" parent="1" source="0Zys3uSyWwQmi7Vi93YZ-3" target="0Zys3uSyWwQmi7Vi93YZ-6">
          <mxGeometry relative="1" as="geometry">
            <Array as="points">
              <mxPoint x="1396" y="777" />
            </Array>
          </mxGeometry>
        </mxCell>
        <mxCell id="0Zys3uSyWwQmi7Vi93YZ-25" value="14. statusAtualizado" style="verticalAlign=bottom;edgeStyle=elbowEdgeStyle;elbow=vertical;curved=0;rounded=0;dashed=1;dashPattern=2 3;endArrow=block;" edge="1" parent="1" source="0Zys3uSyWwQmi7Vi93YZ-6" target="0Zys3uSyWwQmi7Vi93YZ-3">
          <mxGeometry relative="1" as="geometry">
            <Array as="points">
              <mxPoint x="1399" y="831" />
            </Array>
          </mxGeometry>
        </mxCell>
        <mxCell id="0Zys3uSyWwQmi7Vi93YZ-26" value="15. atualizarStatusViagem(idViagem, &quot;EM_ANDAMENTO&quot;)" style="verticalAlign=bottom;edgeStyle=elbowEdgeStyle;elbow=vertical;curved=0;rounded=0;endArrow=block;" edge="1" parent="1" source="0Zys3uSyWwQmi7Vi93YZ-3" target="0Zys3uSyWwQmi7Vi93YZ-4">
          <mxGeometry relative="1" as="geometry">
            <Array as="points">
              <mxPoint x="1180" y="885" />
            </Array>
          </mxGeometry>
        </mxCell>
        <mxCell id="0Zys3uSyWwQmi7Vi93YZ-27" value="16. statusAtualizado" style="verticalAlign=bottom;edgeStyle=elbowEdgeStyle;elbow=vertical;curved=0;rounded=0;dashed=1;dashPattern=2 3;endArrow=block;" edge="1" parent="1" source="0Zys3uSyWwQmi7Vi93YZ-4" target="0Zys3uSyWwQmi7Vi93YZ-3">
          <mxGeometry relative="1" as="geometry">
            <Array as="points">
              <mxPoint x="1183" y="939" />
            </Array>
          </mxGeometry>
        </mxCell>
        <mxCell id="0Zys3uSyWwQmi7Vi93YZ-28" value="17. viagemIniciadaComSucesso" style="verticalAlign=bottom;edgeStyle=elbowEdgeStyle;elbow=vertical;curved=0;rounded=0;dashed=1;dashPattern=2 3;endArrow=block;" edge="1" parent="1" source="0Zys3uSyWwQmi7Vi93YZ-3" target="0Zys3uSyWwQmi7Vi93YZ-2">
          <mxGeometry relative="1" as="geometry">
            <Array as="points">
              <mxPoint x="699" y="993" />
            </Array>
          </mxGeometry>
        </mxCell>
        <mxCell id="0Zys3uSyWwQmi7Vi93YZ-29" value="18. Confirma início da viagem" style="verticalAlign=bottom;edgeStyle=elbowEdgeStyle;elbow=vertical;curved=0;rounded=0;dashed=1;dashPattern=2 3;endArrow=block;" edge="1" parent="1" source="0Zys3uSyWwQmi7Vi93YZ-2" target="0Zys3uSyWwQmi7Vi93YZ-1">
          <mxGeometry relative="1" as="geometry">
            <Array as="points">
              <mxPoint x="279" y="1047" />
            </Array>
          </mxGeometry>
        </mxCell>
        <mxCell id="0Zys3uSyWwQmi7Vi93YZ-30" value="19. Registra ocorrência durante viagem" style="verticalAlign=bottom;edgeStyle=elbowEdgeStyle;elbow=vertical;curved=0;rounded=0;endArrow=block;" edge="1" parent="1" source="0Zys3uSyWwQmi7Vi93YZ-1" target="0Zys3uSyWwQmi7Vi93YZ-2">
          <mxGeometry relative="1" as="geometry">
            <Array as="points">
              <mxPoint x="276" y="1196" />
            </Array>
          </mxGeometry>
        </mxCell>
        <mxCell id="0Zys3uSyWwQmi7Vi93YZ-31" value="20. registrarOcorrencia(idViagem, tipoOcorrencia, descricao)" style="verticalAlign=bottom;edgeStyle=elbowEdgeStyle;elbow=vertical;curved=0;rounded=0;endArrow=block;" edge="1" parent="1" source="0Zys3uSyWwQmi7Vi93YZ-2" target="0Zys3uSyWwQmi7Vi93YZ-3">
          <mxGeometry relative="1" as="geometry">
            <Array as="points">
              <mxPoint x="696" y="1250" />
            </Array>
          </mxGeometry>
        </mxCell>
        <mxCell id="0Zys3uSyWwQmi7Vi93YZ-32" value="21. adicionarOcorrencia(tipoOcorrencia, descricao, hora)" style="verticalAlign=bottom;edgeStyle=elbowEdgeStyle;elbow=vertical;curved=0;rounded=0;endArrow=block;" edge="1" parent="1" source="0Zys3uSyWwQmi7Vi93YZ-3" target="0Zys3uSyWwQmi7Vi93YZ-5">
          <mxGeometry relative="1" as="geometry">
            <Array as="points">
              <mxPoint x="1288" y="1304" />
            </Array>
          </mxGeometry>
        </mxCell>
        <mxCell id="0Zys3uSyWwQmi7Vi93YZ-33" value="22. ocorrenciaRegistrada" style="verticalAlign=bottom;edgeStyle=elbowEdgeStyle;elbow=vertical;curved=0;rounded=0;dashed=1;dashPattern=2 3;endArrow=block;" edge="1" parent="1" source="0Zys3uSyWwQmi7Vi93YZ-5" target="0Zys3uSyWwQmi7Vi93YZ-3">
          <mxGeometry relative="1" as="geometry">
            <Array as="points">
              <mxPoint x="1291" y="1358" />
            </Array>
          </mxGeometry>
        </mxCell>
        <mxCell id="0Zys3uSyWwQmi7Vi93YZ-34" value="23. notificarGestorSobreOcorrencia(idViagem, ocorrencia)" style="verticalAlign=bottom;edgeStyle=elbowEdgeStyle;elbow=vertical;curved=0;rounded=0;endArrow=block;" edge="1" parent="1" source="0Zys3uSyWwQmi7Vi93YZ-3" target="0Zys3uSyWwQmi7Vi93YZ-7">
          <mxGeometry relative="1" as="geometry">
            <Array as="points">
              <mxPoint x="1512" y="1459" />
            </Array>
          </mxGeometry>
        </mxCell>
        <mxCell id="0Zys3uSyWwQmi7Vi93YZ-35" value="24. notificacaoEnviada" style="verticalAlign=bottom;edgeStyle=elbowEdgeStyle;elbow=vertical;curved=0;rounded=0;dashed=1;dashPattern=2 3;endArrow=block;" edge="1" parent="1" source="0Zys3uSyWwQmi7Vi93YZ-7" target="0Zys3uSyWwQmi7Vi93YZ-3">
          <mxGeometry relative="1" as="geometry">
            <Array as="points">
              <mxPoint x="1515" y="1513" />
            </Array>
          </mxGeometry>
        </mxCell>
        <mxCell id="0Zys3uSyWwQmi7Vi93YZ-36" value="25. ocorrenciaRegistradaComSucesso" style="verticalAlign=bottom;edgeStyle=elbowEdgeStyle;elbow=vertical;curved=0;rounded=0;dashed=1;dashPattern=2 3;endArrow=block;" edge="1" parent="1" source="0Zys3uSyWwQmi7Vi93YZ-3" target="0Zys3uSyWwQmi7Vi93YZ-2">
          <mxGeometry relative="1" as="geometry">
            <Array as="points">
              <mxPoint x="699" y="1577" />
            </Array>
          </mxGeometry>
        </mxCell>
        <mxCell id="0Zys3uSyWwQmi7Vi93YZ-37" value="26. Confirma registro de ocorrência" style="verticalAlign=bottom;edgeStyle=elbowEdgeStyle;elbow=vertical;curved=0;rounded=0;dashed=1;dashPattern=2 3;endArrow=block;" edge="1" parent="1" source="0Zys3uSyWwQmi7Vi93YZ-2" target="0Zys3uSyWwQmi7Vi93YZ-1">
          <mxGeometry relative="1" as="geometry">
            <Array as="points">
              <mxPoint x="279" y="1631" />
            </Array>
          </mxGeometry>
        </mxCell>
        <mxCell id="0Zys3uSyWwQmi7Vi93YZ-38" value="27. Seleciona finalizar viagem" style="verticalAlign=bottom;edgeStyle=elbowEdgeStyle;elbow=vertical;curved=0;rounded=0;endArrow=block;" edge="1" parent="1" source="0Zys3uSyWwQmi7Vi93YZ-1" target="0Zys3uSyWwQmi7Vi93YZ-2">
          <mxGeometry relative="1" as="geometry">
            <Array as="points">
              <mxPoint x="276" y="1695" />
            </Array>
          </mxGeometry>
        </mxCell>
        <mxCell id="0Zys3uSyWwQmi7Vi93YZ-39" value="28. Solicita quilometragem final" style="verticalAlign=bottom;edgeStyle=elbowEdgeStyle;elbow=vertical;curved=0;rounded=0;endArrow=block;" edge="1" parent="1" source="0Zys3uSyWwQmi7Vi93YZ-2" target="0Zys3uSyWwQmi7Vi93YZ-1">
          <mxGeometry relative="1" as="geometry">
            <Array as="points">
              <mxPoint x="279" y="1749" />
            </Array>
          </mxGeometry>
        </mxCell>
        <mxCell id="0Zys3uSyWwQmi7Vi93YZ-40" value="29. Informa quilometragem final" style="verticalAlign=bottom;edgeStyle=elbowEdgeStyle;elbow=vertical;curved=0;rounded=0;endArrow=block;" edge="1" parent="1" source="0Zys3uSyWwQmi7Vi93YZ-1" target="0Zys3uSyWwQmi7Vi93YZ-2">
          <mxGeometry relative="1" as="geometry">
            <Array as="points">
              <mxPoint x="276" y="1803" />
            </Array>
          </mxGeometry>
        </mxCell>
        <mxCell id="0Zys3uSyWwQmi7Vi93YZ-41" value="30. finalizarViagem(idViagem, quilometragemFinal)" style="verticalAlign=bottom;edgeStyle=elbowEdgeStyle;elbow=vertical;curved=0;rounded=0;endArrow=block;" edge="1" parent="1" source="0Zys3uSyWwQmi7Vi93YZ-2" target="0Zys3uSyWwQmi7Vi93YZ-3">
          <mxGeometry relative="1" as="geometry">
            <Array as="points">
              <mxPoint x="696" y="1857" />
            </Array>
          </mxGeometry>
        </mxCell>
        <mxCell id="0Zys3uSyWwQmi7Vi93YZ-42" value="31. finalizar(horaFim, quilometragemFinal)" style="verticalAlign=bottom;edgeStyle=elbowEdgeStyle;elbow=vertical;curved=0;rounded=0;endArrow=block;" edge="1" parent="1" source="0Zys3uSyWwQmi7Vi93YZ-3" target="0Zys3uSyWwQmi7Vi93YZ-5">
          <mxGeometry relative="1" as="geometry">
            <Array as="points">
              <mxPoint x="1288" y="1911" />
            </Array>
          </mxGeometry>
        </mxCell>
        <mxCell id="0Zys3uSyWwQmi7Vi93YZ-43" value="32. viagemFinalizada" style="verticalAlign=bottom;edgeStyle=elbowEdgeStyle;elbow=vertical;curved=0;rounded=0;dashed=1;dashPattern=2 3;endArrow=block;" edge="1" parent="1" source="0Zys3uSyWwQmi7Vi93YZ-5" target="0Zys3uSyWwQmi7Vi93YZ-3">
          <mxGeometry relative="1" as="geometry">
            <Array as="points">
              <mxPoint x="1291" y="1965" />
            </Array>
          </mxGeometry>
        </mxCell>
        <mxCell id="0Zys3uSyWwQmi7Vi93YZ-44" value="33. atualizarStatusVeiculo(idVeiculo, &quot;DISPONIVEL&quot;)" style="verticalAlign=bottom;edgeStyle=elbowEdgeStyle;elbow=vertical;curved=0;rounded=0;endArrow=block;" edge="1" parent="1" source="0Zys3uSyWwQmi7Vi93YZ-3" target="0Zys3uSyWwQmi7Vi93YZ-6">
          <mxGeometry relative="1" as="geometry">
            <Array as="points">
              <mxPoint x="1396" y="2019" />
            </Array>
          </mxGeometry>
        </mxCell>
        <mxCell id="0Zys3uSyWwQmi7Vi93YZ-45" value="34. statusAtualizado" style="verticalAlign=bottom;edgeStyle=elbowEdgeStyle;elbow=vertical;curved=0;rounded=0;dashed=1;dashPattern=2 3;endArrow=block;" edge="1" parent="1" source="0Zys3uSyWwQmi7Vi93YZ-6" target="0Zys3uSyWwQmi7Vi93YZ-3">
          <mxGeometry relative="1" as="geometry">
            <Array as="points">
              <mxPoint x="1399" y="2073" />
            </Array>
          </mxGeometry>
        </mxCell>
        <mxCell id="0Zys3uSyWwQmi7Vi93YZ-46" value="35. atualizarStatusViagem(idViagem, &quot;CONCLUIDA&quot;)" style="verticalAlign=bottom;edgeStyle=elbowEdgeStyle;elbow=vertical;curved=0;rounded=0;endArrow=block;" edge="1" parent="1" source="0Zys3uSyWwQmi7Vi93YZ-3" target="0Zys3uSyWwQmi7Vi93YZ-4">
          <mxGeometry relative="1" as="geometry">
            <Array as="points">
              <mxPoint x="1180" y="2127" />
            </Array>
          </mxGeometry>
        </mxCell>
        <mxCell id="0Zys3uSyWwQmi7Vi93YZ-47" value="36. statusAtualizado" style="verticalAlign=bottom;edgeStyle=elbowEdgeStyle;elbow=vertical;curved=0;rounded=0;dashed=1;dashPattern=2 3;endArrow=block;" edge="1" parent="1" source="0Zys3uSyWwQmi7Vi93YZ-4" target="0Zys3uSyWwQmi7Vi93YZ-3">
          <mxGeometry relative="1" as="geometry">
            <Array as="points">
              <mxPoint x="1183" y="2181" />
            </Array>
          </mxGeometry>
        </mxCell>
        <mxCell id="0Zys3uSyWwQmi7Vi93YZ-48" value="37. notificarConclusaoViagem(idViagem)" style="verticalAlign=bottom;edgeStyle=elbowEdgeStyle;elbow=vertical;curved=0;rounded=0;endArrow=block;" edge="1" parent="1" source="0Zys3uSyWwQmi7Vi93YZ-3" target="0Zys3uSyWwQmi7Vi93YZ-7">
          <mxGeometry relative="1" as="geometry">
            <Array as="points">
              <mxPoint x="1512" y="2235" />
            </Array>
          </mxGeometry>
        </mxCell>
        <mxCell id="0Zys3uSyWwQmi7Vi93YZ-49" value="38. notificacaoEnviada" style="verticalAlign=bottom;edgeStyle=elbowEdgeStyle;elbow=vertical;curved=0;rounded=0;dashed=1;dashPattern=2 3;endArrow=block;" edge="1" parent="1" source="0Zys3uSyWwQmi7Vi93YZ-7" target="0Zys3uSyWwQmi7Vi93YZ-3">
          <mxGeometry relative="1" as="geometry">
            <Array as="points">
              <mxPoint x="1515" y="2289" />
            </Array>
          </mxGeometry>
        </mxCell>
        <mxCell id="0Zys3uSyWwQmi7Vi93YZ-50" value="39. viagemFinalizadaComSucesso" style="verticalAlign=bottom;edgeStyle=elbowEdgeStyle;elbow=vertical;curved=0;rounded=0;dashed=1;dashPattern=2 3;endArrow=block;" edge="1" parent="1" source="0Zys3uSyWwQmi7Vi93YZ-3" target="0Zys3uSyWwQmi7Vi93YZ-2">
          <mxGeometry relative="1" as="geometry">
            <Array as="points">
              <mxPoint x="699" y="2343" />
            </Array>
          </mxGeometry>
        </mxCell>
        <mxCell id="0Zys3uSyWwQmi7Vi93YZ-51" value="40. Confirma finalização da viagem" style="verticalAlign=bottom;edgeStyle=elbowEdgeStyle;elbow=vertical;curved=0;rounded=0;dashed=1;dashPattern=2 3;endArrow=block;" edge="1" parent="1" source="0Zys3uSyWwQmi7Vi93YZ-2" target="0Zys3uSyWwQmi7Vi93YZ-1">
          <mxGeometry relative="1" as="geometry">
            <Array as="points">
              <mxPoint x="279" y="2397" />
            </Array>
          </mxGeometry>
        </mxCell>
        <mxCell id="0Zys3uSyWwQmi7Vi93YZ-52" value="Durante a viagem" style="fillColor=#ffff88;strokeColor=#9E916F;" vertex="1" parent="1">
          <mxGeometry x="70" y="1067" width="2029" height="48" as="geometry" />
        </mxCell>
      </root>
    </mxGraphModel>
  </diagram>
</mxfile>
